<svg xmlns="http://www.w3.org/2000/svg" viewBox="0 0 139 139">
  <style>
    .bg { fill: #0f0f0f; }
    .mark { fill: #ffffff; }
    @media (prefers-color-scheme: dark) {
      .bg { fill: #ffffff; }
      .mark { fill: #0f0f0f; }
    }
  </style>
  <rect width="139" height="139" rx="39" class="bg"/>
  <path d="M104.857 34C106.593 34 108 35.4201 108 37.1718V86.5336C108 88.4325 106.357 89.9058 104.488 89.6834L100.031 89.1518L101.585 65.1101C101.946 59.5354 98.3265 54.4894 92.9659 53.0925L39.6589 39.2021C36.6797 38.4258 37.2366 34.0001 40.3136 34H104.857Z" class="mark"/>
  <path d="M30.7045 39.4675C31.535 42.5913 33.8529 45.333 37.8245 46.368L91.1321 60.2584C93.0813 60.7663 94.3974 62.601 94.2665 64.6281L91.5252 107.044C91.3523 109.717 88.7907 111.557 86.231 110.847L33.1804 96.1207C30.0994 95.2654 28.0223 92.3638 28.1855 89.1437L30.7045 39.4675Z" class="mark"/>
</svg>
