<svg fill="none" height="84" viewBox="0 0 88 84" width="88" xmlns="http://www.w3.org/2000/svg"><g fill="currentColor"><path d="m84.365 0c1.9101 0 3.4585 1.54841 3.4585 3.45845v53.82255c-.0002 2.0704-1.8072 3.6769-3.8635 3.4344l-4.9038-.5796 1.7097-26.2143c.3964-6.0786-3.5854-11.5805-9.4833-13.1037l-58.6494-15.14561c-3.27786-.84647-2.66509-5.67212044.7203-5.67219z"/><path d="m2.7813 5.96161c.9138 3.40601 3.46398 6.39549 7.8336 7.52409l58.6501 15.1456c2.1446.5539 3.5926 2.5543 3.4486 4.7646l-3.016 46.249c-.1903 2.9147-3.0086 4.9207-5.8249 4.1462l-58.36734-16.0567c-3.38976-.9326-5.675049-4.0963-5.49548199-7.6074z"/></g></svg>